{"title":"Il Giorno Della Civetta (1968)","uid":9901156,"size":1428910713,"categoryP":"video","categoryS":"movies","magnet":"?xt=urn:btih:b05f32af9e6de4869193195cc5bbad5f40b2030d&amp;dn=Il+Giorno+Della+Civetta+%281968%29&amp;tr=udp%3A%2F%2Ftracker.openbittorrent.com%3A80&amp;tr=udp%3A%2F%2Fopen.demonii.com%3A1337&amp;tr=udp%3A%2F%2Ftracker.coppersurfer.tk%3A6969&amp;tr=udp%3A%2F%2Fexodus.desync.com%3A6969","seeders":3,"leechers":1,"uploader":"cavallone","files":1,"time":1396771920,"description":"Plot: Based on the Leonardo Sciascia novel of the same title, this story deals with the difficulties facing a northern police officer investigating a Mafia murder in a small Sicilian town in 1961. Salvatore Colasbena, a construction supplier, was murdered # and buried under a blanket of tar # because he refused to join the Mafia-controlled roadbuilding group. His widow, Rosa, is investigated by the police, but honest Captain Bellodi comes to suspect Mafia boss Don Mariano Arena when he can find no witnesses, no evidence, only hostile obstruction by corrupt government influences. Captain Bellodi has no idea that his pursuit of the truth will stir up a hornet's nest. Powerful figures have a vested interest in ensuring that the very existence of the Mafia can be denied. The movie dramatizes the hold that the Mafia has on Sicilian life: the police, the judiciary, politics, and the Catholic Church. Everyone in the village is afraid to talk to Bellodi for fear they will be silenced forever.\n\n\nRip specs:\n\nFormat                                   : Matroska\nFormat version                           : Version 2\nFile size                                : 1.33 GiB\nDuration                                 : 1h 44mn\nOverall bit rate                         : 1 830 Kbps\nWriting application                      : HandBrake 0.9.9\nWriting library                          : libmkv 0.6.5\n\nVideo\nID                                       : 1\nFormat                                   : AVC\nFormat/Info                              : Advanced Video Codec\nFormat profile                           : &lt;a class=&quot;__cf_email__&quot; href=&quot;/cdn-cgi/l/email-protection&quot; data-cfemail=&quot;db93b2bcb39b97e8f5ea&quot;&gt;[email&amp;#160;protected]&lt;/a&gt;&lt;script cf-hash='f9e31' type=&quot;text/javascript&quot;&gt;\n/* &lt;![CDATA[ */!function(){try{var t=&quot;currentScript&quot;in document?document.currentScript:function(){for(var t=document.getElementsByTagName(&quot;script&quot;),e=t.length;e--;)if(t[e].getAttribute(&quot;cf-hash&quot;))return t[e]}();if(t&amp;&amp;t.previousSibling){var e,r,n,i,c=t.previousSibling,a=c.getAttribute(&quot;data-cfemail&quot;);if(a){for(e=&quot;&quot;,r=parseInt(a.substr(0,2),16),n=2;a.length-n;n+=2)i=parseInt(a.substr(n,2),16)^r,e+=String.fromCharCode(i);e=document.createTextNode(e),c.parentNode.replaceChild(e,c)}}}catch(u){}}();/* ]]&gt; */&lt;/script&gt;\nFormat settings, CABAC                   : Yes\nFormat settings, ReFrames                : 9 frames\nCodec ID                                 : V_MPEG4/ISO/AVC\nDuration                                 : 1h 44mn\nBit rate                                 : 1 601 Kbps\nWidth                                    : 700 pixels\nHeight                                   : 550 pixels\nDisplay aspect ratio                     : 16:9\nOriginal display aspect ratio            : 16:9\nFrame rate mode                          : Constant\nFrame rate                               : 25.000 fps\nColor space                              : YUV\nChroma subsampling                       : 4:2:0\nBit depth                                : 8 bits\nScan type                                : Progressive\nBits/(Pixel*Frame)                       : 0.166\nStream size                              : 1.16 GiB (88%)\nWriting library                          : x264 core 130 r2273 b3065e6\nEncoding settings                        : cabac=1 / ref=9 / deblock=1:-2:-2 / analyse=0x3:0x133 / me=umh / subme=9 / psy=1 / psy_rd=1.00:0.00 / mixed_ref=1 / me_range=24 / chroma_me=1 / trellis=2 / 8x8dct=1 / cqm=0 / deadzone=21,11 / fast_pskip=0 / chroma_qp_offset=-2 / threads=12 / lookahead_threads=1 / sliced_threads=0 / nr=0 / decimate=1 / interlaced=0 / bluray_compat=0 / constrained_intra=0 / bframes=6 / b_pyramid=2 / b_adapt=2 / b_bias=0 / direct=3 / weightb=1 / open_gop=0 / weightp=2 / keyint=250 / keyint_min=25 / scenecut=40 / intra_refresh=0 / rc_lookahead=250 / rc=crf / mbtree=1 / crf=19.0 / qcomp=0.60 / qpmin=0 / qpmax=69 / qpstep=4 / ip_ratio=1.40 / aq=1:1.20\nLanguage                                 : English\nDefault                                  : Yes\nForced                                   : No\nColor primaries                          : BT.601 PAL\nTransfer characteristics                 : BT.709\nMatrix coefficients                      : BT.601\n\nAudio\nID                                       : 2\nFormat                                   : AC-3\nFormat/Info                              : Audio Coding 3\nMode extension                           : CM (complete main)\nFormat settings, Endianness              : Big\nCodec ID                                 : A_AC3\nDuration                                 : 1h 44mn\nBit rate mode                            : Constant\nBit rate                                 : 192 Kbps\nChannel(s)                               : 1 channel\nChannel positions                        : Front: C\nSampling rate                            : 48.0 KHz\nBit depth                                : 16 bits\nCompression mode                         : Lossy\nStream size                              : 143 MiB (10%)\nLanguage                                 : Italian\nDefault                                  : Yes\nForced                                   : No\n\nText #1\nID                                       : 3\nFormat                                   : VobSub\nCodec ID                                 : S_VOBSUB\nCodec ID/Info                            : The same subtitle format used on DVDs\nLanguage                                 : Italian\nDefault                                  : No\nForced                                   : No\n\nText #2\nID                                       : 4\nFormat                                   : VobSub\nCodec ID                                 : S_VOBSUB\nCodec ID/Info                            : The same subtitle format used on DVDs\nLanguage                                 : English\nDefault                                  : Yes\nForced                                   : No\n\nMenu\n00:00:00.000                             : Chapter 1\n00:07:16.440                             : Chapter 2\n00:09:48.200                             : Chapter 3\n00:16:43.520                             : Chapter 4\n00:24:22.160                             : Chapter 5\n00:26:23.280                             : Chapter 6\n00:30:40.520                             : Chapter 7\n00:33:28.120                             : Chapter 8\n00:41:11.960                             : Chapter 9\n00:47:56.600                             : Chapter 10\n00:53:37.800                             : Chapter 11\n01:01:31.080                             : Chapter 12\n01:06:46.760                             : Chapter 13\n01:15:23.720                             : Chapter 14\n01:19:37.760                             : Chapter 15\n01:22:12.120                             : Chapter 16\n01:31:46.680                             : Chapter 17\n01:38:27.920                             : Chapter 18\n\n","torrent":{"xt":"urn:btih:b05f32af9e6de4869193195cc5bbad5f40b2030d","amp;dn":"Il+Giorno+Della+Civetta+%281968%29","amp;tr":["udp%3A%2F%2Ftracker.openbittorrent.com%3A80","udp%3A%2F%2Fopen.demonii.com%3A1337","udp%3A%2F%2Ftracker.coppersurfer.tk%3A6969","udp%3A%2F%2Fexodus.desync.com%3A6969"],"infoHash":"b05f32af9e6de4869193195cc5bbad5f40b2030d","infoHashBuffer":{"type":"Buffer","data":[176,95,50,175,158,109,228,134,145,147,25,92,197,187,173,95,64,178,3,13]},"announce":[],"urlList":[]}}